<svg width="1001" height="904" viewBox="0 0 1001 904" fill="none" xmlns="http://www.w3.org/2000/svg">
<path d="M42 41H958.351V39H42V41ZM959.351 42V861.311H961.351V42H959.351ZM958.351 862.311H42V864.311H958.351V862.311ZM41 861.311V42H39V861.311H41ZM42 862.311C41.4477 862.311 41 861.863 41 861.311H39C39 862.968 40.3431 864.311 42 864.311V862.311ZM959.351 861.311C959.351 861.863 958.904 862.311 958.351 862.311V864.311C960.008 864.311 961.351 862.968 961.351 861.311H959.351ZM958.351 41C958.904 41 959.351 41.4477 959.351 42H961.351C961.351 40.3432 960.008 39 958.351 39V41ZM42 39C40.3431 39 39 40.3432 39 42H41C41 41.4477 41.4477 41 42 41V39Z" fill="white" fill-opacity="0.1"/>
<path d="M579.253 218.601C575.718 219.23 573.364 222.606 573.993 226.14C574.623 229.674 577.998 232.029 581.532 231.399L579.253 218.601ZM214.67 653.598C211.41 655.101 209.987 658.962 211.49 662.222L235.989 715.345C237.492 718.605 241.354 720.029 244.614 718.526C247.873 717.022 249.297 713.161 247.794 709.901L226.017 662.681L273.238 640.904C276.497 639.4 277.921 635.539 276.418 632.279C274.915 629.019 271.053 627.595 267.793 629.099L214.67 653.598ZM581.532 231.399C677.69 214.272 739.963 246.329 771.212 298.885C802.793 352.001 803.702 427.701 773.163 499.326C742.701 570.772 681.175 637.481 589.063 672.295C496.98 707.098 373.751 710.231 219.641 653.402L215.144 665.599C371.534 723.269 498.055 720.59 593.659 684.455C689.235 648.332 753.334 578.979 785.121 504.425C816.833 430.05 816.616 349.812 782.386 292.241C747.821 234.109 679.595 200.728 579.253 218.601L581.532 231.399Z" fill="#776B5D"/>
<text fill="#776B5D" stroke="#776B5D" stroke-width="1.5" xml:space="preserve" style="white-space: pre" font-family="Major Mono Display" font-size="60" letter-spacing="0em"><tspan x="398.064" y="194">Drag&#10;</tspan><tspan x="464.685" y="254">&#38;&#10;</tspan><tspan x="287.029" y="314">Throw me!</tspan></text>
</svg>
