<svg width="75" height="50" viewBox="0 0 75 50" fill="none" xmlns="http://www.w3.org/2000/svg">
<path d="M68.4082 0H6.5918C2.95122 0 0 2.86802 0 6.40597V43.4182C0 46.9562 2.95122 49.8242 6.5918 49.8242H68.4082C72.0488 49.8242 75 46.9562 75 43.4182V6.40597C75 2.86802 72.0488 0 68.4082 0ZM63.1336 36.6409C62.2099 37.4046 60.8227 37.2964 60.0363 36.3977L47.3543 21.907L38.5888 26.7668C37.914 27.1409 37.0859 27.1408 36.4113 26.7668L27.6459 21.907L14.9637 36.3976C14.1779 37.2955 12.7909 37.405 11.8664 36.6407C10.9419 35.8767 10.83 34.5292 11.6162 33.6308L23.7617 19.7534L12.9738 13.7723C11.9197 13.188 11.5528 11.8838 12.154 10.8595C12.7554 9.83501 14.0972 9.47856 15.1513 10.0628C16.0453 10.5583 36.4919 21.8945 37.5 22.4535C38.5069 21.8952 58.9523 10.5597 59.8487 10.0628C60.9023 9.47841 62.2446 9.83501 62.846 10.8595C63.4472 11.8838 63.0804 13.1879 62.0262 13.7723L51.2383 19.7534L63.3838 33.6308C64.17 34.5293 64.0581 35.8767 63.1336 36.6409Z" fill="#776B5D"/>
</svg>
