<svg width="1030" height="605" viewBox="0 0 1030 605" fill="none" xmlns="http://www.w3.org/2000/svg">
<path d="M42 41H988V39H42V41ZM989 42V563H991V42H989ZM988 564H42V566H988V564ZM41 563V42H39V563H41ZM42 564C41.4477 564 41 563.552 41 563H39C39 564.657 40.3431 566 42 566V564ZM989 563C989 563.552 988.552 564 988 564V566C989.657 566 991 564.657 991 563H989ZM988 41C988.552 41 989 41.4477 989 42H991C991 40.3432 989.657 39 988 39V41ZM42 39C40.3431 39 39 40.3431 39 42H41C41 41.4477 41.4477 41 42 41V39Z" fill="white" fill-opacity="0.1"/>
<path id="Arrow 2" d="M760.253 58.6009C756.718 59.2304 754.364 62.6058 754.993 66.14C755.623 69.6742 758.998 72.029 762.532 71.3994L760.253 58.6009ZM395.67 493.598C392.41 495.101 390.987 498.962 392.49 502.222L416.989 555.345C418.492 558.605 422.354 560.029 425.614 558.526C428.873 557.022 430.297 553.161 428.794 549.901L407.017 502.681L454.238 480.904C457.497 479.4 458.921 475.539 457.418 472.279C455.915 469.019 452.053 467.595 448.793 469.099L395.67 493.598ZM762.532 71.3994C858.69 54.2721 920.963 86.3293 952.212 138.885C983.793 192.001 984.702 267.701 954.163 339.326C923.701 410.772 862.175 477.481 770.063 512.295C677.98 547.098 554.751 550.231 400.641 493.402L396.144 505.599C552.534 563.269 679.055 560.59 774.659 524.455C870.235 488.332 934.334 418.979 966.121 344.425C997.833 270.05 997.616 189.812 963.386 132.241C928.821 74.1085 860.595 40.7282 760.253 58.6009L762.532 71.3994Z" fill="#776B5D"/>
<g id="Drag &#38; Throw me!">
<mask id="path-4-inside-1_0_1" fill="white">
<path d="M45.3875 87V45.24H60.9275C63.9675 45.24 66.7675 46 69.3275 47.52C71.9275 49.04 73.9875 51.1 75.5075 53.7C77.0275 56.26 77.7875 59.06 77.7875 62.1V70.14C77.7875 73.18 77.0275 76 75.5075 78.6C73.9875 81.16 71.9275 83.2 69.3275 84.72C66.7675 86.24 63.9675 87 60.9275 87H45.3875ZM113.862 46.62C116.262 47.74 118.142 49.4 119.502 51.6C120.902 53.8 121.602 56.24 121.602 58.92C121.602 62.04 120.642 64.84 118.722 67.32C116.842 69.76 114.422 71.38 111.462 72.18L122.082 87H119.442L109.182 72.6L107.262 72.66H92.2016V87H89.9816V45.24H105.882C107.642 45.24 109.142 45.36 110.382 45.6C111.662 45.8 112.822 46.14 113.862 46.62ZM107.862 70.44C109.942 70.44 111.862 69.92 113.622 68.88C115.382 67.84 116.782 66.44 117.822 64.68C118.862 62.92 119.382 61 119.382 58.92C119.382 56.6 118.762 54.5 117.522 52.62C116.322 50.74 114.642 49.34 112.482 48.42C110.922 47.78 108.722 47.46 105.882 47.46H92.2016V70.44H107.862ZM148.076 45.24H150.416L167.576 87H165.176L159.536 73.2H138.956L133.256 87H130.916L148.076 45.24ZM139.856 71.04H158.636L149.216 48.12L139.856 71.04ZM208.33 78.42C207.25 81.18 205.29 83.46 202.45 85.26C199.61 87.02 196.57 87.9 193.33 87.9C190.21 87.9 187.33 87.12 184.69 85.56C182.05 84 179.95 81.86 178.39 79.14C176.87 76.38 176.11 73.36 176.11 70.08V61.68C176.11 58.48 176.87 55.56 178.39 52.92C179.95 50.28 182.03 48.2 184.63 46.68C187.27 45.12 190.17 44.34 193.33 44.34C195.93 44.34 198.31 44.78 200.47 45.66C202.63 46.5 204.47 47.74 205.99 49.38C207.23 50.74 208.23 52.26 208.99 53.94C209.79 55.62 210.19 57.32 210.19 59.04H208.03C207.99 57.56 207.61 56.1 206.89 54.66C206.21 53.22 205.33 51.92 204.25 50.76C201.57 47.96 197.93 46.56 193.33 46.56C190.57 46.56 188.03 47.24 185.71 48.6C183.43 49.92 181.63 51.74 180.31 54.06C178.99 56.34 178.33 58.88 178.33 61.68V70.08C178.33 73 178.99 75.66 180.31 78.06C181.67 80.42 183.49 82.28 185.77 83.64C188.09 85 190.61 85.68 193.33 85.68C196.09 85.68 198.61 85.02 200.89 83.7C203.21 82.34 205.03 80.52 206.35 78.24C207.67 75.92 208.33 73.4 208.33 70.68V68.58H193.33V66.36H210.55V87H208.33V78.42ZM291.938 55.68C291.938 57.2 291.638 58.66 291.038 60.06C290.478 61.46 289.658 62.7 288.578 63.78L287.018 62.22C287.898 61.34 288.558 60.34 288.998 59.22C289.478 58.1 289.718 56.92 289.718 55.68C289.718 54 289.298 52.46 288.458 51.06C287.658 49.62 286.538 48.5 285.098 47.7C283.698 46.86 282.158 46.44 280.478 46.44C278.838 46.44 277.298 46.86 275.858 47.7C274.458 48.54 273.338 49.66 272.498 51.06C271.658 52.46 271.238 54 271.238 55.68C271.238 56.92 271.458 58.1 271.898 59.22C272.378 60.34 273.058 61.34 273.938 62.22L291.158 79.44C292.238 77.6 292.778 75.54 292.778 73.26V71.1H298.958V73.26H294.938C294.938 76.14 294.218 78.74 292.778 81.06L298.898 87.12H295.718L291.458 82.86C290.098 84.46 288.478 85.7 286.598 86.58C284.718 87.46 282.698 87.9 280.538 87.9C277.938 87.9 275.518 87.26 273.278 85.98C271.078 84.66 269.318 82.9 267.998 80.7C266.718 78.46 266.078 76.04 266.078 73.44C266.078 71.32 266.518 69.3 267.398 67.38C268.318 65.42 269.598 63.76 271.238 62.4C269.798 60.48 269.078 58.24 269.078 55.68C269.078 53.6 269.578 51.7 270.578 49.98C271.618 48.22 273.018 46.84 274.778 45.84C276.538 44.8 278.458 44.28 280.538 44.28C282.618 44.28 284.518 44.8 286.238 45.84C287.998 46.84 289.378 48.22 290.378 49.98C291.418 51.7 291.938 53.6 291.938 55.68ZM272.678 64.08C271.278 65.24 270.178 66.64 269.378 68.28C268.618 69.92 268.238 71.64 268.238 73.44C268.238 75.68 268.778 77.74 269.858 79.62C270.978 81.5 272.478 83 274.358 84.12C276.238 85.2 278.298 85.74 280.538 85.74C282.378 85.74 284.118 85.34 285.758 84.54C287.398 83.74 288.778 82.66 289.898 81.3L272.678 64.08ZM370.206 87V55.8H354.426V45.24H388.146V55.8H372.366V87H370.206ZM399.62 87V45.24H401.84V64.98H429.56V45.24H431.78V87H429.56V67.2H401.84V87H399.62ZM469.174 46.62C471.574 47.74 473.454 49.4 474.814 51.6C476.214 53.8 476.914 56.24 476.914 58.92C476.914 62.04 475.954 64.84 474.034 67.32C472.154 69.76 469.734 71.38 466.774 72.18L477.394 87H474.754L464.494 72.6L462.574 72.66H447.514V87H445.294V45.24H461.194C462.954 45.24 464.454 45.36 465.694 45.6C466.974 45.8 468.134 46.14 469.174 46.62ZM463.174 70.44C465.254 70.44 467.174 69.92 468.934 68.88C470.694 67.84 472.094 66.44 473.134 64.68C474.174 62.92 474.694 61 474.694 58.92C474.694 56.6 474.074 54.5 472.834 52.62C471.634 50.74 469.954 49.34 467.794 48.42C466.234 47.78 464.034 47.46 461.194 47.46H447.514V70.44H463.174ZM504.528 44.34C507.648 44.34 510.528 45.12 513.168 46.68C515.808 48.2 517.888 50.28 519.408 52.92C520.968 55.56 521.748 58.44 521.748 61.56V70.68C521.748 73.8 520.968 76.68 519.408 79.32C517.888 81.96 515.808 84.06 513.168 85.62C510.528 87.14 507.648 87.9 504.528 87.9C501.408 87.9 498.528 87.14 495.888 85.62C493.248 84.06 491.148 81.96 489.588 79.32C488.068 76.68 487.308 73.8 487.308 70.68V61.56C487.308 58.44 488.068 55.56 489.588 52.92C491.148 50.28 493.248 48.2 495.888 46.68C498.528 45.12 501.408 44.34 504.528 44.34ZM489.528 70.68C489.528 73.4 490.188 75.92 491.508 78.24C492.868 80.52 494.688 82.34 496.968 83.7C499.288 85.02 501.808 85.68 504.528 85.68C507.248 85.68 509.748 85.02 512.028 83.7C514.348 82.34 516.168 80.52 517.488 78.24C518.848 75.92 519.528 73.4 519.528 70.68V61.56C519.528 58.84 518.848 56.34 517.488 54.06C516.168 51.74 514.348 49.92 512.028 48.6C509.748 47.24 507.248 46.56 504.528 46.56C501.808 46.56 499.288 47.24 496.968 48.6C494.688 49.92 492.868 51.74 491.508 54.06C490.188 56.34 489.528 58.84 489.528 61.56V70.68ZM568.742 45.24L557.522 87H555.182L548.942 63.78L542.702 87H540.362L529.142 45.24H531.422L541.502 82.86L547.802 59.52L543.962 45.24H546.242L550.082 59.52L556.382 82.86L566.462 45.24H568.742ZM623.13 87H620.91V45.24H623.31L637.89 70.98L652.41 45.24H654.63V87H652.41V49.68L638.91 73.5H636.81L623.13 49.38V87ZM667.784 45.24H697.184V47.46H670.004V64.38H693.644V66.6H670.004V84.78H697.184V87H667.784V45.24ZM731.398 45.24L729.178 72.6H724.018L721.798 45.24H731.398ZM721.138 82.44C721.138 80.96 721.658 79.7 722.698 78.66C723.778 77.58 725.078 77.04 726.598 77.04C728.118 77.04 729.398 77.58 730.438 78.66C731.518 79.7 732.058 80.96 732.058 82.44C732.058 83.92 731.518 85.2 730.438 86.28C729.398 87.36 728.118 87.9 726.598 87.9C725.118 87.9 723.838 87.36 722.758 86.28C721.678 85.2 721.138 83.92 721.138 82.44Z"/>
</mask>
<path d="M45.3875 87V45.24H60.9275C63.9675 45.24 66.7675 46 69.3275 47.52C71.9275 49.04 73.9875 51.1 75.5075 53.7C77.0275 56.26 77.7875 59.06 77.7875 62.1V70.14C77.7875 73.18 77.0275 76 75.5075 78.6C73.9875 81.16 71.9275 83.2 69.3275 84.72C66.7675 86.24 63.9675 87 60.9275 87H45.3875ZM113.862 46.62C116.262 47.74 118.142 49.4 119.502 51.6C120.902 53.8 121.602 56.24 121.602 58.92C121.602 62.04 120.642 64.84 118.722 67.32C116.842 69.76 114.422 71.38 111.462 72.18L122.082 87H119.442L109.182 72.6L107.262 72.66H92.2016V87H89.9816V45.24H105.882C107.642 45.24 109.142 45.36 110.382 45.6C111.662 45.8 112.822 46.14 113.862 46.62ZM107.862 70.44C109.942 70.44 111.862 69.92 113.622 68.88C115.382 67.84 116.782 66.44 117.822 64.68C118.862 62.92 119.382 61 119.382 58.92C119.382 56.6 118.762 54.5 117.522 52.62C116.322 50.74 114.642 49.34 112.482 48.42C110.922 47.78 108.722 47.46 105.882 47.46H92.2016V70.44H107.862ZM148.076 45.24H150.416L167.576 87H165.176L159.536 73.2H138.956L133.256 87H130.916L148.076 45.24ZM139.856 71.04H158.636L149.216 48.12L139.856 71.04ZM208.33 78.42C207.25 81.18 205.29 83.46 202.45 85.26C199.61 87.02 196.57 87.9 193.33 87.9C190.21 87.9 187.33 87.12 184.69 85.56C182.05 84 179.95 81.86 178.39 79.14C176.87 76.38 176.11 73.36 176.11 70.08V61.68C176.11 58.48 176.87 55.56 178.39 52.92C179.95 50.28 182.03 48.2 184.63 46.68C187.27 45.12 190.17 44.34 193.33 44.34C195.93 44.34 198.31 44.78 200.47 45.66C202.63 46.5 204.47 47.74 205.99 49.38C207.23 50.74 208.23 52.26 208.99 53.94C209.79 55.62 210.19 57.32 210.19 59.04H208.03C207.99 57.56 207.61 56.1 206.89 54.66C206.21 53.22 205.33 51.92 204.25 50.76C201.57 47.96 197.93 46.56 193.33 46.56C190.57 46.56 188.03 47.24 185.71 48.6C183.43 49.92 181.63 51.74 180.31 54.06C178.99 56.34 178.33 58.88 178.33 61.68V70.08C178.33 73 178.99 75.66 180.31 78.06C181.67 80.42 183.49 82.28 185.77 83.64C188.09 85 190.61 85.68 193.33 85.68C196.09 85.68 198.61 85.02 200.89 83.7C203.21 82.34 205.03 80.52 206.35 78.24C207.67 75.92 208.33 73.4 208.33 70.68V68.58H193.33V66.36H210.55V87H208.33V78.42ZM291.938 55.68C291.938 57.2 291.638 58.66 291.038 60.06C290.478 61.46 289.658 62.7 288.578 63.78L287.018 62.22C287.898 61.34 288.558 60.34 288.998 59.22C289.478 58.1 289.718 56.92 289.718 55.68C289.718 54 289.298 52.46 288.458 51.06C287.658 49.62 286.538 48.5 285.098 47.7C283.698 46.86 282.158 46.44 280.478 46.44C278.838 46.44 277.298 46.86 275.858 47.7C274.458 48.54 273.338 49.66 272.498 51.06C271.658 52.46 271.238 54 271.238 55.68C271.238 56.92 271.458 58.1 271.898 59.22C272.378 60.34 273.058 61.34 273.938 62.22L291.158 79.44C292.238 77.6 292.778 75.54 292.778 73.26V71.1H298.958V73.26H294.938C294.938 76.14 294.218 78.74 292.778 81.06L298.898 87.12H295.718L291.458 82.86C290.098 84.46 288.478 85.7 286.598 86.58C284.718 87.46 282.698 87.9 280.538 87.9C277.938 87.9 275.518 87.26 273.278 85.98C271.078 84.66 269.318 82.9 267.998 80.7C266.718 78.46 266.078 76.04 266.078 73.44C266.078 71.32 266.518 69.3 267.398 67.38C268.318 65.42 269.598 63.76 271.238 62.4C269.798 60.48 269.078 58.24 269.078 55.68C269.078 53.6 269.578 51.7 270.578 49.98C271.618 48.22 273.018 46.84 274.778 45.84C276.538 44.8 278.458 44.28 280.538 44.28C282.618 44.28 284.518 44.8 286.238 45.84C287.998 46.84 289.378 48.22 290.378 49.98C291.418 51.7 291.938 53.6 291.938 55.68ZM272.678 64.08C271.278 65.24 270.178 66.64 269.378 68.28C268.618 69.92 268.238 71.64 268.238 73.44C268.238 75.68 268.778 77.74 269.858 79.62C270.978 81.5 272.478 83 274.358 84.12C276.238 85.2 278.298 85.74 280.538 85.74C282.378 85.74 284.118 85.34 285.758 84.54C287.398 83.74 288.778 82.66 289.898 81.3L272.678 64.08ZM370.206 87V55.8H354.426V45.24H388.146V55.8H372.366V87H370.206ZM399.62 87V45.24H401.84V64.98H429.56V45.24H431.78V87H429.56V67.2H401.84V87H399.62ZM469.174 46.62C471.574 47.74 473.454 49.4 474.814 51.6C476.214 53.8 476.914 56.24 476.914 58.92C476.914 62.04 475.954 64.84 474.034 67.32C472.154 69.76 469.734 71.38 466.774 72.18L477.394 87H474.754L464.494 72.6L462.574 72.66H447.514V87H445.294V45.24H461.194C462.954 45.24 464.454 45.36 465.694 45.6C466.974 45.8 468.134 46.14 469.174 46.62ZM463.174 70.44C465.254 70.44 467.174 69.92 468.934 68.88C470.694 67.84 472.094 66.44 473.134 64.68C474.174 62.92 474.694 61 474.694 58.92C474.694 56.6 474.074 54.5 472.834 52.62C471.634 50.74 469.954 49.34 467.794 48.42C466.234 47.78 464.034 47.46 461.194 47.46H447.514V70.44H463.174ZM504.528 44.34C507.648 44.34 510.528 45.12 513.168 46.68C515.808 48.2 517.888 50.28 519.408 52.92C520.968 55.56 521.748 58.44 521.748 61.56V70.68C521.748 73.8 520.968 76.68 519.408 79.32C517.888 81.96 515.808 84.06 513.168 85.62C510.528 87.14 507.648 87.9 504.528 87.9C501.408 87.9 498.528 87.14 495.888 85.62C493.248 84.06 491.148 81.96 489.588 79.32C488.068 76.68 487.308 73.8 487.308 70.68V61.56C487.308 58.44 488.068 55.56 489.588 52.92C491.148 50.28 493.248 48.2 495.888 46.68C498.528 45.12 501.408 44.34 504.528 44.34ZM489.528 70.68C489.528 73.4 490.188 75.92 491.508 78.24C492.868 80.52 494.688 82.34 496.968 83.7C499.288 85.02 501.808 85.68 504.528 85.68C507.248 85.68 509.748 85.02 512.028 83.7C514.348 82.34 516.168 80.52 517.488 78.24C518.848 75.92 519.528 73.4 519.528 70.68V61.56C519.528 58.84 518.848 56.34 517.488 54.06C516.168 51.74 514.348 49.92 512.028 48.6C509.748 47.24 507.248 46.56 504.528 46.56C501.808 46.56 499.288 47.24 496.968 48.6C494.688 49.92 492.868 51.74 491.508 54.06C490.188 56.34 489.528 58.84 489.528 61.56V70.68ZM568.742 45.24L557.522 87H555.182L548.942 63.78L542.702 87H540.362L529.142 45.24H531.422L541.502 82.86L547.802 59.52L543.962 45.24H546.242L550.082 59.52L556.382 82.86L566.462 45.24H568.742ZM623.13 87H620.91V45.24H623.31L637.89 70.98L652.41 45.24H654.63V87H652.41V49.68L638.91 73.5H636.81L623.13 49.38V87ZM667.784 45.24H697.184V47.46H670.004V64.38H693.644V66.6H670.004V84.78H697.184V87H667.784V45.24ZM731.398 45.24L729.178 72.6H724.018L721.798 45.24H731.398ZM721.138 82.44C721.138 80.96 721.658 79.7 722.698 78.66C723.778 77.58 725.078 77.04 726.598 77.04C728.118 77.04 729.398 77.58 730.438 78.66C731.518 79.7 732.058 80.96 732.058 82.44C732.058 83.92 731.518 85.2 730.438 86.28C729.398 87.36 728.118 87.9 726.598 87.9C725.118 87.9 723.838 87.36 722.758 86.28C721.678 85.2 721.138 83.92 721.138 82.44Z" fill="#776B5D"/>
<path d="M45.3875 87H43.8875V88.5H45.3875V87ZM45.3875 45.24V43.74H43.8875V45.24H45.3875ZM69.3275 47.52L68.5617 48.8098L68.5705 48.8149L69.3275 47.52ZM75.5075 53.7L74.2125 54.4571L74.2177 54.4658L75.5075 53.7ZM75.5075 78.6L76.7973 79.3658L76.8024 79.357L75.5075 78.6ZM69.3275 84.72L68.5704 83.425L68.5617 83.4302L69.3275 84.72ZM46.8875 87V45.24H43.8875V87H46.8875ZM45.3875 46.74H60.9275V43.74H45.3875V46.74ZM60.9275 46.74C63.7039 46.74 66.2385 47.4304 68.5617 48.8098L70.0933 46.2302C67.2965 44.5696 64.2311 43.74 60.9275 43.74V46.74ZM68.5705 48.8149C70.9479 50.2048 72.8227 52.0796 74.2126 54.457L76.8024 52.943C75.1523 50.1204 72.9071 47.8752 70.0845 46.2251L68.5705 48.8149ZM74.2177 54.4658C75.5971 56.789 76.2875 59.3235 76.2875 62.1H79.2875C79.2875 58.7964 78.4579 55.731 76.7973 52.9342L74.2177 54.4658ZM76.2875 62.1V70.14H79.2875V62.1H76.2875ZM76.2875 70.14C76.2875 72.9166 75.597 75.4749 74.2126 77.843L76.8024 79.357C78.4581 76.5251 79.2875 73.4434 79.2875 70.14H76.2875ZM74.2177 77.8342C72.8291 80.1729 70.9536 82.0319 68.5705 83.4251L70.0845 86.0149C72.9015 84.3681 75.1459 82.1471 76.7973 79.3658L74.2177 77.8342ZM68.5617 83.4302C66.2385 84.8096 63.7039 85.5 60.9275 85.5V88.5C64.2311 88.5 67.2965 87.6704 70.0933 86.0098L68.5617 83.4302ZM60.9275 85.5H45.3875V88.5H60.9275V85.5ZM113.862 46.62L114.496 45.2607L114.49 45.2581L113.862 46.62ZM119.502 51.6L118.226 52.3887L118.231 52.3971L118.236 52.4053L119.502 51.6ZM118.722 67.32L117.535 66.4017L117.533 66.4045L118.722 67.32ZM111.462 72.18L111.07 70.732L108.983 71.2961L110.242 73.0537L111.462 72.18ZM122.082 87V88.5H125.002L123.301 86.1263L122.082 87ZM119.442 87L118.22 87.8704L118.669 88.5H119.442V87ZM109.182 72.6L110.403 71.7296L109.937 71.0757L109.135 71.1007L109.182 72.6ZM107.262 72.66V74.16H107.285L107.308 74.1593L107.262 72.66ZM92.2016 72.66V71.16H90.7016V72.66H92.2016ZM92.2016 87V88.5H93.7016V87H92.2016ZM89.9816 87H88.4816V88.5H89.9816V87ZM89.9816 45.24V43.74H88.4816V45.24H89.9816ZM110.382 45.6L110.097 47.0727L110.123 47.0778L110.15 47.082L110.382 45.6ZM113.622 68.88L112.858 67.5886L112.858 67.5886L113.622 68.88ZM117.822 64.68L116.53 63.9169L116.53 63.9169L117.822 64.68ZM117.522 52.62L116.257 53.4271L116.263 53.4365L116.269 53.4459L117.522 52.62ZM112.482 48.42L113.069 47.04L113.06 47.036L113.051 47.0322L112.482 48.42ZM92.2016 47.46V45.96H90.7016V47.46H92.2016ZM92.2016 70.44H90.7016V71.94H92.2016V70.44ZM113.227 47.9793C115.369 48.9788 117.023 50.4436 118.226 52.3887L120.777 50.8113C119.26 48.3564 117.154 46.5012 114.496 45.2607L113.227 47.9793ZM118.236 52.4053C119.478 54.3577 120.102 56.5169 120.102 58.92H123.102C123.102 55.9631 122.325 53.2423 120.767 50.7947L118.236 52.4053ZM120.102 58.92C120.102 61.7057 119.253 64.1831 117.535 66.4017L119.908 68.2383C122.03 65.4969 123.102 62.3743 123.102 58.92H120.102ZM117.533 66.4045C115.853 68.5859 113.712 70.018 111.07 70.732L111.853 73.628C115.131 72.742 117.831 70.9341 119.91 68.2355L117.533 66.4045ZM110.242 73.0537L120.862 87.8737L123.301 86.1263L112.681 71.3063L110.242 73.0537ZM122.082 85.5H119.442V88.5H122.082V85.5ZM120.663 86.1296L110.403 71.7296L107.96 73.4704L118.22 87.8704L120.663 86.1296ZM109.135 71.1007L107.215 71.1607L107.308 74.1593L109.228 74.0993L109.135 71.1007ZM107.262 71.16H92.2016V74.16H107.262V71.16ZM90.7016 72.66V87H93.7016V72.66H90.7016ZM92.2016 85.5H89.9816V88.5H92.2016V85.5ZM91.4816 87V45.24H88.4816V87H91.4816ZM89.9816 46.74H105.882V43.74H89.9816V46.74ZM105.882 46.74C107.58 46.74 108.979 46.8564 110.097 47.0727L110.667 44.1273C109.304 43.8636 107.703 43.74 105.882 43.74V46.74ZM110.15 47.082C111.31 47.2633 112.334 47.5672 113.233 47.9819L114.49 45.2581C113.309 44.7128 112.013 44.3367 110.613 44.118L110.15 47.082ZM107.862 71.94C110.205 71.94 112.389 71.3504 114.385 70.1714L112.858 67.5886C111.334 68.4896 109.678 68.94 107.862 68.94V71.94ZM114.385 70.1714C116.362 69.0027 117.944 67.4209 119.113 65.4431L116.53 63.9169C115.619 65.4591 114.401 66.6773 112.858 67.5886L114.385 70.1714ZM119.113 65.4431C120.292 63.4478 120.882 61.2635 120.882 58.92H117.882C117.882 60.7365 117.431 62.3922 116.53 63.9169L119.113 65.4431ZM120.882 58.92C120.882 56.3158 120.18 53.9269 118.774 51.7941L116.269 53.4459C117.343 55.0731 117.882 56.8842 117.882 58.92H120.882ZM118.786 51.8129C117.414 49.6643 115.492 48.0718 113.069 47.04L111.894 49.8C113.791 50.6082 115.229 51.8157 116.257 53.4271L118.786 51.8129ZM113.051 47.0322C111.228 46.2842 108.801 45.96 105.882 45.96V48.96C108.642 48.96 110.615 49.2758 111.912 49.8078L113.051 47.0322ZM105.882 45.96H92.2016V48.96H105.882V45.96ZM90.7016 47.46V70.44H93.7016V47.46H90.7016ZM92.2016 71.94H107.862V68.94H92.2016V71.94ZM148.076 45.24V43.74H147.07L146.688 44.6699L148.076 45.24ZM150.416 45.24L151.803 44.6699L151.421 43.74H150.416V45.24ZM167.576 87V88.5H169.814L168.963 86.4299L167.576 87ZM165.176 87L163.787 87.5675L164.168 88.5H165.176V87ZM159.536 73.2L160.924 72.6325L160.543 71.7H159.536V73.2ZM138.956 73.2V71.7H137.952L137.569 72.6274L138.956 73.2ZM133.256 87V88.5H134.259L134.642 87.5726L133.256 87ZM130.916 87L129.528 86.4299L128.678 88.5H130.916V87ZM139.856 71.04L138.467 70.4729L137.623 72.54H139.856V71.04ZM158.636 71.04V72.54H160.874L160.023 70.4698L158.636 71.04ZM149.216 48.12L150.603 47.5498L149.211 44.1633L147.827 47.5529L149.216 48.12ZM148.076 46.74H150.416V43.74H148.076V46.74ZM149.028 45.8101L166.188 87.5701L168.963 86.4299L151.803 44.6699L149.028 45.8101ZM167.576 85.5H165.176V88.5H167.576V85.5ZM166.564 86.4325L160.924 72.6325L158.147 73.7675L163.787 87.5675L166.564 86.4325ZM159.536 71.7H138.956V74.7H159.536V71.7ZM137.569 72.6274L131.869 86.4274L134.642 87.5726L140.342 73.7726L137.569 72.6274ZM133.256 85.5H130.916V88.5H133.256V85.5ZM132.303 87.5701L149.463 45.8101L146.688 44.6699L129.528 86.4299L132.303 87.5701ZM139.856 72.54H158.636V69.54H139.856V72.54ZM160.023 70.4698L150.603 47.5498L147.828 48.6902L157.248 71.6102L160.023 70.4698ZM147.827 47.5529L138.467 70.4729L141.244 71.6071L150.604 48.6871L147.827 47.5529ZM208.33 78.42H209.83L206.933 77.8734L208.33 78.42ZM202.45 85.26L203.24 86.535L203.246 86.531L203.253 86.527L202.45 85.26ZM184.69 85.56L185.453 84.2686L185.453 84.2686L184.69 85.56ZM178.39 79.14L177.076 79.8636L177.082 79.875L177.089 79.8863L178.39 79.14ZM178.39 52.92L177.098 52.1569L177.094 52.1642L177.09 52.1716L178.39 52.92ZM184.63 46.68L185.387 47.975L185.393 47.9714L184.63 46.68ZM200.47 45.66L199.904 47.0491L199.915 47.0537L199.926 47.058L200.47 45.66ZM205.99 49.38L207.098 48.3693L207.09 48.3604L205.99 49.38ZM208.99 53.94L207.623 54.5583L207.629 54.5716L207.635 54.5849L208.99 53.94ZM210.19 59.04V60.54H211.69V59.04H210.19ZM208.03 59.04L206.53 59.0805L206.57 60.54H208.03V59.04ZM206.89 54.66L205.533 55.3005L205.541 55.3157L205.548 55.3308L206.89 54.66ZM204.25 50.76L205.348 49.7379L205.34 49.7303L205.333 49.7228L204.25 50.76ZM185.71 48.6L186.461 49.8982L186.468 49.894L185.71 48.6ZM180.31 54.06L181.608 54.8116L181.613 54.8018L180.31 54.06ZM180.31 78.06L178.995 78.7829L179.003 78.796L179.01 78.8089L180.31 78.06ZM185.77 83.64L185.001 84.9283L185.011 84.934L185.77 83.64ZM200.89 83.7L201.641 84.9982L201.648 84.994L200.89 83.7ZM206.35 78.24L207.648 78.9916L207.653 78.9818L206.35 78.24ZM208.33 68.58H209.83V67.08H208.33V68.58ZM193.33 68.58H191.83V70.08H193.33V68.58ZM193.33 66.36V64.86H191.83V66.36H193.33ZM210.55 66.36H212.05V64.86H210.55V66.36ZM210.55 87V88.5H212.05V87H210.55ZM208.33 87H206.83V88.5H208.33V87ZM206.933 77.8734C205.984 80.2971 204.255 82.3399 201.647 83.993L203.253 86.527C206.324 84.5801 208.515 82.0629 209.727 78.9666L206.933 77.8734ZM201.66 83.985C199.049 85.6027 196.281 86.4 193.33 86.4V89.4C196.858 89.4 200.17 88.4373 203.24 86.535L201.66 83.985ZM193.33 86.4C190.473 86.4 187.857 85.6896 185.453 84.2686L183.927 86.8514C186.802 88.5504 189.946 89.4 193.33 89.4V86.4ZM185.453 84.2686C183.042 82.8438 181.125 80.8938 179.691 78.3937L177.089 79.8863C178.775 82.8262 181.058 85.1562 183.927 86.8514L185.453 84.2686ZM179.704 78.4164C178.311 75.8873 177.61 73.1177 177.61 70.08H174.61C174.61 73.6023 175.429 76.8727 177.076 79.8636L179.704 78.4164ZM177.61 70.08V61.68H174.61V70.08H177.61ZM177.61 61.68C177.61 58.7289 178.307 56.0691 179.69 53.6684L177.09 52.1716C175.432 55.0509 174.61 58.2311 174.61 61.68H177.61ZM179.681 53.6831C181.114 51.2588 183.011 49.3636 185.387 47.9749L183.873 45.3851C181.048 47.0364 178.786 49.3012 177.098 52.1569L179.681 53.6831ZM185.393 47.9714C187.794 46.5523 190.43 45.84 193.33 45.84V42.84C189.91 42.84 186.745 43.6877 183.867 45.3886L185.393 47.9714ZM193.33 45.84C195.758 45.84 197.943 46.2503 199.904 47.0491L201.036 44.2709C198.676 43.3097 196.101 42.84 193.33 42.84V45.84ZM199.926 47.058C201.882 47.8187 203.53 48.9324 204.89 50.3996L207.09 48.3604C205.41 46.5476 203.377 45.1812 201.013 44.262L199.926 47.058ZM204.881 50.3906C206.015 51.634 206.928 53.0215 207.623 54.5583L210.356 53.3217C209.532 51.4985 208.444 49.846 207.098 48.3694L204.881 50.3906ZM207.635 54.5849C208.347 56.0802 208.69 57.561 208.69 59.04H211.69C211.69 57.079 211.232 55.1598 210.344 53.2951L207.635 54.5849ZM210.19 57.54H208.03V60.54H210.19V57.54ZM209.529 58.9995C209.483 57.2817 209.041 55.6078 208.231 53.9892L205.548 55.3308C206.179 56.5922 206.497 57.8383 206.53 59.0805L209.529 58.9995ZM208.246 54.0195C207.5 52.4404 206.533 51.0115 205.348 49.7379L203.152 51.7821C204.126 52.8285 204.919 53.9996 205.533 55.3005L208.246 54.0195ZM205.333 49.7228C202.318 46.5723 198.256 45.06 193.33 45.06V48.06C197.603 48.06 200.822 49.3477 203.166 51.7972L205.333 49.7228ZM193.33 45.06C190.31 45.06 187.507 45.8074 184.951 47.306L186.468 49.894C188.552 48.6726 190.829 48.06 193.33 48.06V45.06ZM184.958 47.3019C182.445 48.7569 180.456 50.7703 179.006 53.3182L181.613 54.8018C182.804 52.7097 184.415 51.0831 186.461 49.8981L184.958 47.3019ZM179.012 53.3084C177.551 55.8313 176.83 58.6333 176.83 61.68H179.83C179.83 59.1267 180.428 56.8487 181.608 54.8116L179.012 53.3084ZM176.83 61.68V70.08H179.83V61.68H176.83ZM176.83 70.08C176.83 73.2355 177.546 76.1468 178.995 78.7829L181.624 77.3371C180.434 75.1732 179.83 72.7645 179.83 70.08H176.83ZM179.01 78.8089C180.495 81.3851 182.495 83.4333 185.001 84.9282L186.538 82.3518C184.484 81.1267 182.845 79.4549 181.609 77.3111L179.01 78.8089ZM185.011 84.934C187.564 86.4305 190.346 87.18 193.33 87.18V84.18C190.873 84.18 188.615 83.5695 186.528 82.346L185.011 84.934ZM193.33 87.18C196.341 87.18 199.122 86.4568 201.641 84.9981L200.138 82.4019C198.098 83.5832 195.839 84.18 193.33 84.18V87.18ZM201.648 84.994C204.187 83.5057 206.195 81.5008 207.648 78.9916L205.052 77.4884C203.864 79.5392 202.232 81.1743 200.131 82.406L201.648 84.994ZM207.653 78.9818C209.105 76.4313 209.83 73.6549 209.83 70.68H206.83C206.83 73.1451 206.235 75.4087 205.046 77.4982L207.653 78.9818ZM209.83 70.68V68.58H206.83V70.68H209.83ZM208.33 67.08H193.33V70.08H208.33V67.08ZM194.83 68.58V66.36H191.83V68.58H194.83ZM193.33 67.86H210.55V64.86H193.33V67.86ZM209.05 66.36V87H212.05V66.36H209.05ZM210.55 85.5H208.33V88.5H210.55V85.5ZM209.83 87V78.42H206.83V87H209.83ZM291.038 60.06L289.659 59.4691L289.652 59.4859L289.645 59.5029L291.038 60.06ZM288.578 63.78L287.517 64.8407L288.578 65.9013L289.638 64.8407L288.578 63.78ZM287.018 62.22L285.957 61.1593L284.896 62.22L285.957 63.2807L287.018 62.22ZM288.998 59.22L287.619 58.6291L287.61 58.6502L287.602 58.6715L288.998 59.22ZM288.458 51.06L287.147 51.7885L287.159 51.8103L287.172 51.8317L288.458 51.06ZM285.098 47.7L284.326 48.9862L284.348 48.9991L284.369 49.0112L285.098 47.7ZM275.858 47.7L275.102 46.4043L275.094 46.409L275.086 46.4138L275.858 47.7ZM272.498 51.06L271.212 50.2883L271.212 50.2883L272.498 51.06ZM271.898 59.22L270.502 59.7685L270.51 59.7898L270.519 59.8109L271.898 59.22ZM273.938 62.22L272.877 63.2807L272.877 63.2807L273.938 62.22ZM291.158 79.44L290.097 80.5007L291.469 81.8727L292.451 80.1993L291.158 79.44ZM292.778 71.1V69.6H291.278V71.1H292.778ZM298.958 71.1H300.458V69.6H298.958V71.1ZM298.958 73.26V74.76H300.458V73.26H298.958ZM294.938 73.26V71.76H293.438V73.26H294.938ZM292.778 81.06L291.503 80.269L290.873 81.2847L291.722 82.1259L292.778 81.06ZM298.898 87.12V88.62H302.545L299.953 86.0541L298.898 87.12ZM295.718 87.12L294.657 88.1807L295.096 88.62H295.718V87.12ZM291.458 82.86L292.518 81.7993L291.368 80.6492L290.315 81.8885L291.458 82.86ZM286.598 86.58L285.962 85.2215L285.962 85.2215L286.598 86.58ZM273.278 85.98L272.506 87.2662L272.52 87.2744L272.534 87.2824L273.278 85.98ZM267.998 80.7L266.695 81.4442L266.703 81.4581L266.712 81.4717L267.998 80.7ZM267.398 67.38L266.04 66.7426L266.034 66.755L267.398 67.38ZM271.238 62.4L272.195 63.5546L273.295 62.6428L272.438 61.5L271.238 62.4ZM270.578 49.98L269.286 49.2169L269.281 49.2261L270.578 49.98ZM274.778 45.84L275.519 47.1442L275.53 47.1379L275.541 47.1314L274.778 45.84ZM286.238 45.84L285.462 47.1236L285.479 47.1341L285.497 47.1442L286.238 45.84ZM290.378 49.98L289.074 50.721L289.084 50.7387L289.094 50.7561L290.378 49.98ZM272.678 64.08L273.738 63.0193L272.773 62.0535L271.721 62.925L272.678 64.08ZM269.378 68.28L268.03 67.6224L268.023 67.6358L268.017 67.6493L269.378 68.28ZM269.858 79.62L268.557 80.3672L268.563 80.3775L268.569 80.3877L269.858 79.62ZM274.358 84.12L273.59 85.4087L273.6 85.4147L273.611 85.4207L274.358 84.12ZM285.758 84.54L286.415 85.8882L286.415 85.8882L285.758 84.54ZM289.898 81.3L291.056 82.2536L291.921 81.2023L290.958 80.2393L289.898 81.3ZM290.438 55.68C290.438 56.9964 290.179 58.2554 289.659 59.4691L292.417 60.6509C293.096 59.0646 293.438 57.4036 293.438 55.68H290.438ZM289.645 59.5029C289.162 60.7118 288.455 61.7811 287.517 62.7193L289.638 64.8407C290.86 63.6189 291.794 62.2082 292.431 60.6171L289.645 59.5029ZM289.638 62.7193L288.078 61.1593L285.957 63.2807L287.517 64.8407L289.638 62.7193ZM288.078 63.2807C289.099 62.2599 289.876 61.0871 290.394 59.7685L287.602 58.6715C287.24 59.5929 286.696 60.4201 285.957 61.1593L288.078 63.2807ZM290.377 59.8109C290.938 58.5008 291.218 57.1195 291.218 55.68H288.218C288.218 56.7205 288.018 57.6992 287.619 58.6291L290.377 59.8109ZM291.218 55.68C291.218 53.7364 290.728 51.9284 289.744 50.2883L287.172 51.8317C287.868 52.9916 288.218 54.2636 288.218 55.68H291.218ZM289.769 50.3315C288.833 48.6467 287.511 47.3248 285.826 46.3888L284.369 49.0112C285.564 49.6752 286.483 50.5933 287.147 51.7885L289.769 50.3315ZM285.87 46.4138C284.229 45.4297 282.421 44.94 280.478 44.94V47.94C281.894 47.94 283.166 48.2903 284.326 48.9862L285.87 46.4138ZM280.478 44.94C278.568 44.94 276.767 45.4328 275.102 46.4043L276.614 48.9957C277.828 48.2872 279.108 47.94 280.478 47.94V44.94ZM275.086 46.4138C273.475 47.3804 272.178 48.6771 271.212 50.2883L273.784 51.8317C274.497 50.6429 275.441 49.6996 276.63 48.9862L275.086 46.4138ZM271.212 50.2883C270.228 51.9284 269.738 53.7364 269.738 55.68H272.738C272.738 54.2636 273.088 52.9916 273.784 51.8317L271.212 50.2883ZM269.738 55.68C269.738 57.1019 269.991 58.4684 270.502 59.7685L273.294 58.6715C272.925 57.7316 272.738 56.7381 272.738 55.68H269.738ZM270.519 59.8109C271.076 61.1101 271.865 62.2687 272.877 63.2807L274.998 61.1593C274.25 60.4113 273.68 59.5699 273.277 58.6291L270.519 59.8109ZM272.877 63.2807L290.097 80.5007L292.218 78.3793L274.998 61.1593L272.877 63.2807ZM292.451 80.1993C293.676 78.1132 294.278 75.788 294.278 73.26H291.278C291.278 75.292 290.8 77.0868 289.864 78.6807L292.451 80.1993ZM294.278 73.26V71.1H291.278V73.26H294.278ZM292.778 72.6H298.958V69.6H292.778V72.6ZM297.458 71.1V73.26H300.458V71.1H297.458ZM298.958 71.76H294.938V74.76H298.958V71.76ZM293.438 73.26C293.438 75.8765 292.788 78.1997 291.503 80.269L294.052 81.851C295.648 79.2803 296.438 76.4035 296.438 73.26H293.438ZM291.722 82.1259L297.842 88.1859L299.953 86.0541L293.833 79.9941L291.722 82.1259ZM298.898 85.62H295.718V88.62H298.898V85.62ZM296.778 86.0593L292.518 81.7993L290.397 83.9207L294.657 88.1807L296.778 86.0593ZM290.315 81.8885C289.093 83.3266 287.645 84.4337 285.962 85.2215L287.234 87.9385C289.311 86.9663 291.103 85.5934 292.601 83.8315L290.315 81.8885ZM285.962 85.2215C284.289 86.0045 282.487 86.4 280.538 86.4V89.4C282.908 89.4 285.147 88.9155 287.234 87.9385L285.962 85.2215ZM280.538 86.4C278.197 86.4 276.034 85.8271 274.022 84.6776L272.534 87.2824C275.002 88.6929 277.679 89.4 280.538 89.4V86.4ZM274.05 84.6938C272.061 83.5004 270.477 81.9171 269.284 79.9283L266.712 81.4717C268.158 83.8829 270.095 85.8196 272.506 87.2662L274.05 84.6938ZM269.3 79.9558C268.151 77.9443 267.578 75.7811 267.578 73.44H264.578C264.578 76.2989 265.285 78.9757 266.695 81.4442L269.3 79.9558ZM267.578 73.44C267.578 71.5349 267.972 69.7281 268.761 68.005L266.034 66.755C265.064 68.8719 264.578 71.1051 264.578 73.44H267.578ZM268.756 68.0174C269.583 66.2538 270.728 64.7714 272.195 63.5546L270.28 61.2454C268.468 62.7486 267.052 64.5862 266.04 66.7426L268.756 68.0174ZM272.438 61.5C271.206 59.8575 270.578 57.9385 270.578 55.68H267.578C267.578 58.5415 268.39 61.1025 270.038 63.3L272.438 61.5ZM270.578 55.68C270.578 53.8523 271.014 52.2144 271.875 50.7339L269.281 49.2261C268.142 51.1856 267.578 53.3477 267.578 55.68H270.578ZM271.869 50.7431C272.777 49.206 273.989 48.0136 275.519 47.1442L274.037 44.5358C272.047 45.6664 270.458 47.234 269.286 49.2169L271.869 50.7431ZM275.541 47.1314C277.066 46.2304 278.721 45.78 280.538 45.78V42.78C278.194 42.78 276.01 43.3696 274.015 44.5486L275.541 47.1314ZM280.538 45.78C282.354 45.78 283.984 46.2302 285.462 47.1236L287.014 44.5564C285.051 43.3697 282.881 42.78 280.538 42.78V45.78ZM285.497 47.1442C287.022 48.0106 288.207 49.1961 289.074 50.721L291.682 49.239C290.548 47.2439 288.974 45.6694 286.979 44.5358L285.497 47.1442ZM289.094 50.7561C289.988 52.2336 290.438 53.8636 290.438 55.68H293.438C293.438 53.3364 292.848 51.1664 291.661 49.2039L289.094 50.7561ZM271.721 62.925C270.156 64.2216 268.923 65.7914 268.03 67.6224L270.726 68.9376C271.433 67.4886 272.4 66.2584 273.635 65.235L271.721 62.925ZM268.017 67.6493C267.166 69.4861 266.738 71.4212 266.738 73.44H269.738C269.738 71.8588 270.07 70.3539 270.739 68.9107L268.017 67.6493ZM266.738 73.44C266.738 75.9331 267.342 78.2521 268.557 80.3672L271.158 78.8728C270.214 77.2279 269.738 75.4269 269.738 73.44H266.738ZM268.569 80.3877C269.817 82.482 271.496 84.161 273.59 85.4087L275.126 82.8313C273.46 81.839 272.139 80.518 271.146 78.8523L268.569 80.3877ZM273.611 85.4207C275.726 86.6357 278.045 87.24 280.538 87.24V84.24C278.551 84.24 276.75 83.7643 275.105 82.8193L273.611 85.4207ZM280.538 87.24C282.604 87.24 284.569 86.7889 286.415 85.8882L285.1 83.1918C283.667 83.8911 282.152 84.24 280.538 84.24V87.24ZM286.415 85.8882C288.241 84.9974 289.794 83.7854 291.056 82.2536L288.74 80.3464C287.761 81.5346 286.554 82.4826 285.1 83.1918L286.415 85.8882ZM290.958 80.2393L273.738 63.0193L271.617 65.1407L288.837 82.3607L290.958 80.2393ZM370.206 87H368.706V88.5H370.206V87ZM370.206 55.8H371.706V54.3H370.206V55.8ZM354.426 55.8H352.926V57.3H354.426V55.8ZM354.426 45.24V43.74H352.926V45.24H354.426ZM388.146 45.24H389.646V43.74H388.146V45.24ZM388.146 55.8V57.3H389.646V55.8H388.146ZM372.366 55.8V54.3H370.866V55.8H372.366ZM372.366 87V88.5H373.866V87H372.366ZM371.706 87V55.8H368.706V87H371.706ZM370.206 54.3H354.426V57.3H370.206V54.3ZM355.926 55.8V45.24H352.926V55.8H355.926ZM354.426 46.74H388.146V43.74H354.426V46.74ZM386.646 45.24V55.8H389.646V45.24H386.646ZM388.146 54.3H372.366V57.3H388.146V54.3ZM370.866 55.8V87H373.866V55.8H370.866ZM372.366 85.5H370.206V88.5H372.366V85.5ZM399.62 87H398.12V88.5H399.62V87ZM399.62 45.24V43.74H398.12V45.24H399.62ZM401.84 45.24H403.34V43.74H401.84V45.24ZM401.84 64.98H400.34V66.48H401.84V64.98ZM429.56 64.98V66.48H431.06V64.98H429.56ZM429.56 45.24V43.74H428.06V45.24H429.56ZM431.78 45.24H433.28V43.74H431.78V45.24ZM431.78 87V88.5H433.28V87H431.78ZM429.56 87H428.06V88.5H429.56V87ZM429.56 67.2H431.06V65.7H429.56V67.2ZM401.84 67.2V65.7H400.34V67.2H401.84ZM401.84 87V88.5H403.34V87H401.84ZM401.12 87V45.24H398.12V87H401.12ZM399.62 46.74H401.84V43.74H399.62V46.74ZM400.34 45.24V64.98H403.34V45.24H400.34ZM401.84 66.48H429.56V63.48H401.84V66.48ZM431.06 64.98V45.24H428.06V64.98H431.06ZM429.56 46.74H431.78V43.74H429.56V46.74ZM430.28 45.24V87H433.28V45.24H430.28ZM431.78 85.5H429.56V88.5H431.78V85.5ZM431.06 87V67.2H428.06V87H431.06ZM429.56 65.7H401.84V68.7H429.56V65.7ZM400.34 67.2V87H403.34V67.2H400.34ZM401.84 85.5H399.62V88.5H401.84V85.5ZM469.174 46.62L469.808 45.2607L469.803 45.2581L469.174 46.62ZM474.814 51.6L473.538 52.3887L473.543 52.3971L473.549 52.4053L474.814 51.6ZM474.034 67.32L472.848 66.4017L472.846 66.4045L474.034 67.32ZM466.774 72.18L466.383 70.732L464.295 71.2961L465.555 73.0537L466.774 72.18ZM477.394 87V88.5H480.314L478.613 86.1263L477.394 87ZM474.754 87L473.532 87.8704L473.981 88.5H474.754V87ZM464.494 72.6L465.716 71.7296L465.25 71.0757L464.447 71.1007L464.494 72.6ZM462.574 72.66V74.16H462.597L462.621 74.1593L462.574 72.66ZM447.514 72.66V71.16H446.014V72.66H447.514ZM447.514 87V88.5H449.014V87H447.514ZM445.294 87H443.794V88.5H445.294V87ZM445.294 45.24V43.74H443.794V45.24H445.294ZM465.694 45.6L465.409 47.0727L465.436 47.0778L465.462 47.082L465.694 45.6ZM468.934 68.88L468.171 67.5886L468.171 67.5886L468.934 68.88ZM473.134 64.68L471.843 63.9169L471.843 63.9169L473.134 64.68ZM472.834 52.62L471.57 53.4271L471.576 53.4365L471.582 53.4459L472.834 52.62ZM467.794 48.42L468.382 47.04L468.373 47.036L468.363 47.0322L467.794 48.42ZM447.514 47.46V45.96H446.014V47.46H447.514ZM447.514 70.44H446.014V71.94H447.514V70.44ZM468.54 47.9793C470.682 48.9788 472.336 50.4436 473.538 52.3887L476.09 50.8113C474.572 48.3564 472.467 46.5012 469.808 45.2607L468.54 47.9793ZM473.549 52.4053C474.791 54.3577 475.414 56.5169 475.414 58.92H478.414C478.414 55.9631 477.637 53.2423 476.08 50.7947L473.549 52.4053ZM475.414 58.92C475.414 61.7057 474.566 64.1831 472.848 66.4017L475.22 68.2383C477.342 65.4969 478.414 62.3743 478.414 58.92H475.414ZM472.846 66.4045C471.165 68.5859 469.024 70.018 466.383 70.732L467.165 73.628C470.444 72.742 473.143 70.9341 475.222 68.2355L472.846 66.4045ZM465.555 73.0537L476.175 87.8737L478.613 86.1263L467.993 71.3063L465.555 73.0537ZM477.394 85.5H474.754V88.5H477.394V85.5ZM475.976 86.1296L465.716 71.7296L463.272 73.4704L473.532 87.8704L475.976 86.1296ZM464.447 71.1007L462.527 71.1607L462.621 74.1593L464.541 74.0993L464.447 71.1007ZM462.574 71.16H447.514V74.16H462.574V71.16ZM446.014 72.66V87H449.014V72.66H446.014ZM447.514 85.5H445.294V88.5H447.514V85.5ZM446.794 87V45.24H443.794V87H446.794ZM445.294 46.74H461.194V43.74H445.294V46.74ZM461.194 46.74C462.893 46.74 464.291 46.8564 465.409 47.0727L465.979 44.1273C464.617 43.8636 463.015 43.74 461.194 43.74V46.74ZM465.462 47.082C466.623 47.2633 467.647 47.5672 468.545 47.9819L469.803 45.2581C468.621 44.7128 467.325 44.3367 465.926 44.118L465.462 47.082ZM463.174 71.94C465.518 71.94 467.702 71.3504 469.697 70.1714L468.171 67.5886C466.646 68.4896 464.991 68.94 463.174 68.94V71.94ZM469.697 70.1714C471.675 69.0027 473.257 67.4209 474.425 65.4431L471.843 63.9169C470.931 65.4591 469.713 66.6773 468.171 67.5886L469.697 70.1714ZM474.425 65.4431C475.605 63.4478 476.194 61.2635 476.194 58.92H473.194C473.194 60.7365 472.744 62.3922 471.843 63.9169L474.425 65.4431ZM476.194 58.92C476.194 56.3158 475.493 53.9269 474.086 51.7941L471.582 53.4459C472.655 55.0731 473.194 56.8842 473.194 58.92H476.194ZM474.098 51.8129C472.727 49.6643 470.804 48.0718 468.382 47.04L467.206 49.8C469.104 50.6082 470.541 51.8157 471.57 53.4271L474.098 51.8129ZM468.363 47.0322C466.54 46.2842 464.114 45.96 461.194 45.96V48.96C463.954 48.96 465.928 49.2758 467.225 49.8078L468.363 47.0322ZM461.194 45.96H447.514V48.96H461.194V45.96ZM446.014 47.46V70.44H449.014V47.46H446.014ZM447.514 71.94H463.174V68.94H447.514V71.94ZM513.168 46.68L512.405 47.9714L512.412 47.9757L512.42 47.9799L513.168 46.68ZM519.408 52.92L518.108 53.6684L518.112 53.6758L518.117 53.6831L519.408 52.92ZM519.408 79.32L518.117 78.5569L518.112 78.5642L518.108 78.5716L519.408 79.32ZM513.168 85.62L513.917 86.9199L513.924 86.9157L513.931 86.9114L513.168 85.62ZM495.888 85.62L495.125 86.9114L495.132 86.9157L495.14 86.9199L495.888 85.62ZM489.588 79.32L488.288 80.0684L488.292 80.0758L488.297 80.0831L489.588 79.32ZM489.588 52.92L488.297 52.1569L488.292 52.1642L488.288 52.1716L489.588 52.92ZM495.888 46.68L496.637 47.9799L496.644 47.9757L496.651 47.9714L495.888 46.68ZM491.508 78.24L490.204 78.9818L490.212 78.9952L490.22 79.0084L491.508 78.24ZM496.968 83.7L496.2 84.9882L496.213 84.9961L496.226 85.0037L496.968 83.7ZM512.028 83.7L512.78 84.9982L512.787 84.994L512.028 83.7ZM517.488 78.24L516.194 77.4814L516.19 77.4884L517.488 78.24ZM517.488 54.06L516.184 54.8018L516.192 54.8152L516.2 54.8284L517.488 54.06ZM512.028 48.6L511.26 49.8882L511.273 49.8961L511.286 49.9037L512.028 48.6ZM496.968 48.6L497.72 49.8982L497.727 49.894L496.968 48.6ZM491.508 54.06L490.214 53.3014L490.21 53.3084L491.508 54.06ZM504.528 45.84C507.385 45.84 510 46.5504 512.405 47.9714L513.931 45.3886C511.056 43.6896 507.912 42.84 504.528 42.84V45.84ZM512.42 47.9799C514.83 49.3679 516.72 51.2577 518.108 53.6684L520.708 52.1716C519.056 49.3023 516.786 47.0321 513.917 45.3801L512.42 47.9799ZM518.117 53.6831C519.538 56.0878 520.248 58.7035 520.248 61.56H523.248C523.248 58.1765 522.399 55.0322 520.7 52.1569L518.117 53.6831ZM520.248 61.56V70.68H523.248V61.56H520.248ZM520.248 70.68C520.248 73.5365 519.538 76.1522 518.117 78.5569L520.7 80.0831C522.399 77.2078 523.248 74.0635 523.248 70.68H520.248ZM518.108 78.5716C516.718 80.9857 514.824 82.8993 512.405 84.3286L513.931 86.9114C516.792 85.2207 519.058 82.9343 520.708 80.0684L518.108 78.5716ZM512.42 84.3201C510.013 85.7057 507.392 86.4 504.528 86.4V89.4C507.904 89.4 511.043 88.5743 513.917 86.9199L512.42 84.3201ZM504.528 86.4C501.664 86.4 499.043 85.7057 496.637 84.3201L495.14 86.9199C498.013 88.5743 501.152 89.4 504.528 89.4V86.4ZM496.651 84.3286C494.229 82.8973 492.311 80.9791 490.88 78.5569L488.297 80.0831C489.985 82.9409 492.267 85.2227 495.125 86.9114L496.651 84.3286ZM490.888 78.5716C489.502 76.1649 488.808 73.544 488.808 70.68H485.808C485.808 74.056 486.634 77.1951 488.288 80.0684L490.888 78.5716ZM488.808 70.68V61.56H485.808V70.68H488.808ZM488.808 61.56C488.808 58.696 489.502 56.0751 490.888 53.6684L488.288 52.1716C486.634 55.0449 485.808 58.184 485.808 61.56H488.808ZM490.88 53.6831C492.309 51.2643 494.222 49.3699 496.637 47.9799L495.14 45.3801C492.274 47.0301 489.987 49.2957 488.297 52.1569L490.88 53.6831ZM496.651 47.9714C499.056 46.5504 501.672 45.84 504.528 45.84V42.84C501.145 42.84 498 43.6896 495.125 45.3886L496.651 47.9714ZM488.028 70.68C488.028 73.6549 488.753 76.4313 490.204 78.9818L492.812 77.4982C491.623 75.4087 491.028 73.1451 491.028 70.68H488.028ZM490.22 79.0084C491.707 81.5021 493.706 83.5008 496.2 84.9882L497.737 82.4118C495.67 81.1792 494.029 79.5379 492.796 77.4716L490.22 79.0084ZM496.226 85.0037C498.777 86.4549 501.553 87.18 504.528 87.18V84.18C502.063 84.18 499.799 83.5851 497.71 82.3963L496.226 85.0037ZM504.528 87.18C507.503 87.18 510.264 86.4548 512.78 84.9981L511.277 82.4019C509.233 83.5852 506.993 84.18 504.528 84.18V87.18ZM512.787 84.994C515.326 83.5057 517.334 81.5008 518.786 78.9916L516.19 77.4884C515.003 79.5392 513.371 81.1743 511.27 82.406L512.787 84.994ZM518.782 78.9986C520.279 76.4458 521.028 73.6635 521.028 70.68H518.028C518.028 73.1365 517.418 75.3942 516.194 77.4814L518.782 78.9986ZM521.028 70.68V61.56H518.028V70.68H521.028ZM521.028 61.56C521.028 58.5764 520.278 55.8099 518.776 53.2916L516.2 54.8284C517.418 56.8701 518.028 59.1036 518.028 61.56H521.028ZM518.792 53.3182C517.338 50.7638 515.324 48.7496 512.77 47.2963L511.286 49.9037C513.372 51.0904 514.998 52.7162 516.184 54.8018L518.792 53.3182ZM512.797 47.3118C510.278 45.8096 507.512 45.06 504.528 45.06V48.06C506.985 48.06 509.218 48.6704 511.26 49.8882L512.797 47.3118ZM504.528 45.06C501.545 45.06 498.762 45.8095 496.21 47.306L497.727 49.894C499.814 48.6705 502.072 48.06 504.528 48.06V45.06ZM496.217 47.3019C493.707 48.7546 491.702 50.7626 490.214 53.3014L492.802 54.8186C494.034 52.7174 495.669 51.0854 497.72 49.8981L496.217 47.3019ZM490.21 53.3084C488.753 55.8245 488.028 58.585 488.028 61.56H491.028C491.028 59.095 491.623 56.8555 492.806 54.8116L490.21 53.3084ZM488.028 61.56V70.68H491.028V61.56H488.028ZM568.742 45.24L570.191 45.6292L570.698 43.74H568.742V45.24ZM557.522 87V88.5H558.672L558.971 87.3892L557.522 87ZM555.182 87L553.734 87.3893L554.032 88.5H555.182V87ZM548.942 63.78L550.391 63.3907L548.942 58.0002L547.494 63.3907L548.942 63.78ZM542.702 87V88.5H543.852L544.151 87.3893L542.702 87ZM540.362 87L538.914 87.3892L539.212 88.5H540.362V87ZM529.142 45.24V43.74H527.186L527.694 45.6292L529.142 45.24ZM531.422 45.24L532.871 44.8518L532.573 43.74H531.422V45.24ZM541.502 82.86L540.053 83.2482L541.497 88.6358L542.95 83.2509L541.502 82.86ZM547.802 59.52L549.25 59.9109L549.356 59.5207L549.251 59.1305L547.802 59.52ZM543.962 45.24V43.74H542.006L542.514 45.6295L543.962 45.24ZM546.242 45.24L547.691 44.8505L547.392 43.74H546.242V45.24ZM550.082 59.52L548.634 59.9095L548.634 59.9109L550.082 59.52ZM556.382 82.86L554.934 83.2509L556.388 88.6358L557.831 83.2482L556.382 82.86ZM566.462 45.24V43.74H565.311L565.013 44.8518L566.462 45.24ZM567.294 44.8508L556.074 86.6108L558.971 87.3892L570.191 45.6292L567.294 44.8508ZM557.522 85.5H555.182V88.5H557.522V85.5ZM556.631 86.6107L550.391 63.3907L547.494 64.1693L553.734 87.3893L556.631 86.6107ZM547.494 63.3907L541.254 86.6107L544.151 87.3893L550.391 64.1693L547.494 63.3907ZM542.702 85.5H540.362V88.5H542.702V85.5ZM541.811 86.6108L530.591 44.8508L527.694 45.6292L538.914 87.3892L541.811 86.6108ZM529.142 46.74H531.422V43.74H529.142V46.74ZM529.973 45.6282L540.053 83.2482L542.951 82.4718L532.871 44.8518L529.973 45.6282ZM542.95 83.2509L549.25 59.9109L546.354 59.1291L540.054 82.4691L542.95 83.2509ZM549.251 59.1305L545.411 44.8505L542.514 45.6295L546.354 59.9095L549.251 59.1305ZM543.962 46.74H546.242V43.74H543.962V46.74ZM544.794 45.6295L548.634 59.9095L551.531 59.1305L547.691 44.8505L544.794 45.6295ZM548.634 59.9109L554.934 83.2509L557.83 82.4691L551.53 59.1291L548.634 59.9109ZM557.831 83.2482L567.911 45.6282L565.013 44.8518L554.933 82.4718L557.831 83.2482ZM566.462 46.74H568.742V43.74H566.462V46.74ZM623.13 87V88.5H624.63V87H623.13ZM620.91 87H619.41V88.5H620.91V87ZM620.91 45.24V43.74H619.41V45.24H620.91ZM623.31 45.24L624.615 44.5007L624.185 43.74H623.31V45.24ZM637.89 70.98L636.585 71.7193L637.893 74.0282L639.197 71.717L637.89 70.98ZM652.41 45.24V43.74H651.534L651.104 44.503L652.41 45.24ZM654.63 45.24H656.13V43.74H654.63V45.24ZM654.63 87V88.5H656.13V87H654.63ZM652.41 87H650.91V88.5H652.41V87ZM652.41 49.68H653.91V43.9912L651.105 48.9404L652.41 49.68ZM638.91 73.5V75H639.784L640.215 74.2396L638.91 73.5ZM636.81 73.5L635.506 74.24L635.937 75H636.81V73.5ZM623.13 49.38L624.435 48.64L621.63 43.6948V49.38H623.13ZM623.13 85.5H620.91V88.5H623.13V85.5ZM622.41 87V45.24H619.41V87H622.41ZM620.91 46.74H623.31V43.74H620.91V46.74ZM622.005 45.9793L636.585 71.7193L639.195 70.2407L624.615 44.5007L622.005 45.9793ZM639.197 71.717L653.717 45.977L651.104 44.503L636.584 70.243L639.197 71.717ZM652.41 46.74H654.63V43.74H652.41V46.74ZM653.13 45.24V87H656.13V45.24H653.13ZM654.63 85.5H652.41V88.5H654.63V85.5ZM653.91 87V49.68H650.91V87H653.91ZM651.105 48.9404L637.605 72.7604L640.215 74.2396L653.715 50.4196L651.105 48.9404ZM638.91 72H636.81V75H638.91V72ZM638.115 72.76L624.435 48.64L621.826 50.12L635.506 74.24L638.115 72.76ZM621.63 49.38V87H624.63V49.38H621.63ZM667.784 45.24V43.74H666.284V45.24H667.784ZM697.184 45.24H698.684V43.74H697.184V45.24ZM697.184 47.46V48.96H698.684V47.46H697.184ZM670.004 47.46V45.96H668.504V47.46H670.004ZM670.004 64.38H668.504V65.88H670.004V64.38ZM693.644 64.38H695.144V62.88H693.644V64.38ZM693.644 66.6V68.1H695.144V66.6H693.644ZM670.004 66.6V65.1H668.504V66.6H670.004ZM670.004 84.78H668.504V86.28H670.004V84.78ZM697.184 84.78H698.684V83.28H697.184V84.78ZM697.184 87V88.5H698.684V87H697.184ZM667.784 87H666.284V88.5H667.784V87ZM667.784 46.74H697.184V43.74H667.784V46.74ZM695.684 45.24V47.46H698.684V45.24H695.684ZM697.184 45.96H670.004V48.96H697.184V45.96ZM668.504 47.46V64.38H671.504V47.46H668.504ZM670.004 65.88H693.644V62.88H670.004V65.88ZM692.144 64.38V66.6H695.144V64.38H692.144ZM693.644 65.1H670.004V68.1H693.644V65.1ZM668.504 66.6V84.78H671.504V66.6H668.504ZM670.004 86.28H697.184V83.28H670.004V86.28ZM695.684 84.78V87H698.684V84.78H695.684ZM697.184 85.5H667.784V88.5H697.184V85.5ZM669.284 87V45.24H666.284V87H669.284ZM731.398 45.24L732.894 45.3613L733.025 43.74H731.398V45.24ZM729.178 72.6V74.1H730.562L730.674 72.7213L729.178 72.6ZM724.018 72.6L722.523 72.7213L722.635 74.1H724.018V72.6ZM721.798 45.24V43.74H720.172L720.303 45.3613L721.798 45.24ZM722.698 78.66L721.638 77.5993L721.638 77.5993L722.698 78.66ZM730.438 78.66L729.358 79.7005L729.378 79.7208L729.398 79.7405L730.438 78.66ZM730.438 86.28L729.378 85.2193L729.368 85.2293L729.358 85.2395L730.438 86.28ZM722.758 86.28L723.819 85.2193L723.819 85.2193L722.758 86.28ZM729.903 45.1187L727.683 72.4787L730.674 72.7213L732.894 45.3613L729.903 45.1187ZM729.178 71.1H724.018V74.1H729.178V71.1ZM725.514 72.4787L723.294 45.1187L720.303 45.3613L722.523 72.7213L725.514 72.4787ZM721.798 46.74H731.398V43.74H721.798V46.74ZM722.638 82.44C722.638 81.355 723.002 80.4774 723.759 79.7207L721.638 77.5993C720.314 78.9226 719.638 80.565 719.638 82.44H722.638ZM723.759 79.7207C724.559 78.9204 725.478 78.54 726.598 78.54V75.54C724.678 75.54 722.998 76.2396 721.638 77.5993L723.759 79.7207ZM726.598 78.54C727.717 78.54 728.605 78.9186 729.358 79.7005L731.519 77.6195C730.192 76.2414 728.52 75.54 726.598 75.54V78.54ZM729.398 79.7405C730.189 80.5019 730.558 81.3736 730.558 82.44H733.558C733.558 80.5464 732.848 78.8981 731.479 77.5795L729.398 79.7405ZM730.558 82.44C730.558 83.5082 730.187 84.4106 729.378 85.2193L731.499 87.3407C732.85 85.9894 733.558 84.3318 733.558 82.44H730.558ZM729.358 85.2395C728.605 86.0214 727.717 86.4 726.598 86.4V89.4C728.52 89.4 730.192 88.6986 731.519 87.3205L729.358 85.2395ZM726.598 86.4C725.53 86.4 724.628 86.0281 723.819 85.2193L721.698 87.3407C723.049 88.6919 724.707 89.4 726.598 89.4V86.4ZM723.819 85.2193C723.01 84.4106 722.638 83.5082 722.638 82.44H719.638C719.638 84.3318 720.347 85.9894 721.698 87.3407L723.819 85.2193Z" fill="#776B5D" mask="url(#path-4-inside-1_0_1)"/>
</g>
</svg>
